<?xml version="1.0" encoding="UTF-8"?><svg id="Layer_2" xmlns="http://www.w3.org/2000/svg" viewBox="0 0 624.64 206.54"><defs><style>.cls-1{fill:#f9f9fa;}.cls-2{fill:#e5e5e5;}.cls-3{fill:#ed1c24;}</style></defs><g id="Layer_1-2"><g><path class="cls-3" d="M248.42,103.44c0,3.37-2.93,6.11-6.54,6.11s-6.55-2.74-6.55-6.11,2.93-6.11,6.55-6.11,6.54,2.74,6.54,6.11"/><path class="cls-3" d="M240.35,1.52V14.48h-5.8v4.56h5.8v23.72h-5.8v4.56h5.8v21.44h-5.8v4.56h5.8l-.1,2.86,1.62,16.29,1.56-16.29-.04-2.86h5.8v-4.56h-5.8v-21.44h5.8v-4.56h-5.8V19.05h5.8v-4.56h-5.8V1.52c-.07-2.14-3.09-1.91-3.04,0"/><path class="cls-3" d="M132.85,104.86h13.89v5.41h4.89v-5.41h25.41v5.41h4.89v-5.41h22.97v5.41h4.89v-5.41l3.07,.09,17.46-1.51-17.46-1.46-3.07,.04v-5.41h-4.89v5.41h-22.97v-5.41h-4.89v5.41h-25.41v-5.41h-4.89v5.41h-13.89c-2.29,.07-2.04,2.89,0,2.84"/><path class="cls-3" d="M350.89,102.02h-13.89v-5.41h-4.89v5.41h-25.42v-5.41h-4.89v5.41h-22.98v-5.41h-4.89v5.41l-3.07-.09-17.46,1.51,17.46,1.46,3.07-.04v5.41h4.89v-5.41h22.98v5.41h4.89v-5.41h25.42v5.41h4.89v-5.41h13.89c2.29-.07,2.05-2.89,0-2.84"/><path class="cls-3" d="M243.39,205.02v-12.96h5.8v-4.56h-5.8v-23.72h5.8v-4.56h-5.8v-21.44h5.8v-4.56h-5.8l.1-2.86-1.62-16.3-1.57,16.3,.04,2.86h-5.8v4.56h5.8v21.44h-5.8v4.56h5.8v23.72h-5.8v4.56h5.8v12.96c.08,2.14,3.09,1.91,3.04,0"/></g><path class="cls-1" d="M0,140.07V69.06l26.1,40.87v30.14H0ZM.06,61.81H29.76l22.49,34.79,17.69-28.31v39.39l-20.16,32.38L.06,61.81Zm73.99,78.26V61.81h27.93v78.26h-27.93Z"/><path class="cls-1" d="M116.01,53.55h27.99v16.63h-27.99v-16.63Zm0,23.88h27.99v62.63h-27.99v-62.63Z"/><path class="cls-1" d="M197.64,140.07h-24.77l-15.67-14.62V53.55h27.93V124.44h12.51v15.63Z"/><path class="cls-1" d="M342.52,140.07v-29.31h-36.27l-16.81-15.69v-17.63l16.81-15.63h9.48v27.78h38.54l16.24,15.69v19.17l-16.74,15.63h-11.25Zm-53.08-23.47h27.93v9.32h20.72v14.15h-34.56l-14.09-15.63v-7.84Zm30.71-40.69v-14.09h33.55l14.53,13.62v8.31h-25.72v-7.84h-22.37Z"/><path class="cls-1" d="M383.21,160.94V77.44h27.93v83.51h-27.93Zm44.67-67.88h-12.32v-7.9l8.21-7.73h15.29l16.81,15.63v31.37l-16.81,15.63h-23.5v-14.62h12.32v-32.38Z"/><path class="cls-1" d="M495.8,140.07h-11.18l-16.74-15.63v-31.37l16.74-15.63h11.18v62.63Zm4.42-25.12v-10.91h14.72v-10.97h-14.72v-15.63h23.69l16.74,15.63v21.88h-40.44Zm0,25.12v-14.62h37.53v6.78l-8.34,7.84h-29.19Z"/><path class="cls-1" d="M579.9,140.07h-11.18l-16.74-15.63v-31.37l16.74-15.63h11.18v62.63Zm4.42-47v-15.63h23.57l16.74,15.63v9.38h-27.93v-9.38h-12.38Zm0,47v-14.62h12.38v-7.84h27.93v6.84l-16.74,15.63h-23.57Z"/><g><path class="cls-2" d="M327.7,145.76c2.19,0,3.96,.49,5.32,1.47,1.36,.98,2.04,2.4,2.04,4.27,0,1.33-.41,2.9-1.24,4.7-.83,1.8-1.84,3.6-3.04,5.4-1.2,1.8-2.5,3.48-3.88,5.04-1.39,1.56-2.67,2.78-3.84,3.67-1.28,.22-2.58,.42-3.88,.6-1.31,.18-2.63,.27-3.96,.27h-.88c-.32,0-.61-.04-.88-.13,1.65-1.73,3.29-3.47,4.92-5.2,1.63-1.73,3.21-3.54,4.76-5.4,.96-1.16,1.72-2.36,2.28-3.6,.56-1.24,1.08-2.53,1.56-3.87-.32-.09-.65-.18-1-.27-.35-.09-.68-.13-1-.13-.27,0-.56,.04-.88,.13-2.56,.76-4.82,1.97-6.77,3.64-1.95,1.67-3.67,3.55-5.16,5.64-1.5,2.09-2.78,4.26-3.84,6.5-1.07,2.25-2.03,4.35-2.88,6.3-.75,1.82-1.64,3.57-2.68,5.24-1.04,1.67-1.99,3.39-2.84,5.17,2.88-.09,5.77-.18,8.65-.27,2.88-.09,5.79-.11,8.73-.07,1.65,0,3.38-.01,5.16-.03,1.79-.02,3.46,.21,5,.7-.8,1.07-1.66,2.09-2.56,3.07-.91,.98-1.76,2-2.56,3.07-2.29-.09-4.59-.16-6.89-.2-2.29-.04-4.59-.07-6.89-.07-4.64,0-9.24,.07-13.77,.2-2.88,2.49-6.14,4.6-9.77,6.34-3.63,1.73-7.55,2.8-11.77,3.2,.16-1.02,.55-2.12,1.16-3.3,.61-1.18,1.21-2.21,1.8-3.1,.8-1.25,1.67-2.22,2.6-2.94,.93-.71,1.95-1.3,3.04-1.77,1.09-.47,2.27-.88,3.52-1.23,1.25-.36,2.57-.78,3.96-1.27,.64-.22,1.05-.47,1.24-.73,.19-.27,.41-.64,.68-1.13,1.01-1.56,1.99-3.1,2.92-4.64,.93-1.53,1.8-3.12,2.6-4.77,1.44-2.94,2.85-5.9,4.24-8.91,1.39-3,3.1-5.86,5.12-8.57,1.07-1.42,2.29-2.81,3.68-4.17,1.39-1.36,2.89-2.6,4.52-3.74,1.63-1.13,3.38-2.12,5.25-2.97,1.87-.84,3.82-1.47,5.84-1.87,.37-.09,.73-.16,1.08-.2,.35-.04,.73-.07,1.16-.07Z"/><path class="cls-2" d="M338.99,170.98c1.17-.13,2.35-.21,3.52-.23,1.17-.02,2.35-.1,3.52-.23-1.23,2.62-2.6,5.26-4.12,7.9-1.52,2.65-2.79,5.33-3.8,8.04,.8,.13,1.71,.18,2.72,.13,1.01-.04,1.95-.07,2.8-.07-.32,.76-.75,1.65-1.28,2.67-.53,1.02-1.04,1.89-1.52,2.6-.59,.09-1.09,.08-1.52-.03-.43-.11-.93-.17-1.52-.17-.85,0-1.7-.01-2.52-.03-.83-.02-1.58-.13-2.24-.33-.67-.2-1.2-.52-1.6-.97-.4-.44-.6-1.11-.6-2,0-1.33,.35-2.66,1.04-3.97,.69-1.31,1.36-2.55,2-3.7,.91-1.6,1.76-3.21,2.56-4.84,.8-1.62,1.65-3.21,2.56-4.77Zm8.41-14.61c1.44,.09,2.65,.61,3.64,1.57,.99,.96,1.48,2.01,1.48,3.17,0,1.33-.55,2.45-1.64,3.33-1.09,.89-2.44,1.33-4.04,1.33s-2.87-.37-3.96-1.1c-1.09-.73-1.64-1.79-1.64-3.17,0-.8,.27-1.68,.8-2.63,.53-.96,1.25-1.61,2.16-1.97,.48-.18,1-.28,1.56-.3,.56-.02,1.11-.1,1.64-.23Z"/><path class="cls-2" d="M358.44,170.84l7.69-.8c-.48,1.2-1.11,2.35-1.88,3.44-.77,1.09-1.32,2.26-1.64,3.5,.69-.49,1.57-1.11,2.64-1.87,1.07-.76,2.2-1.48,3.4-2.17,1.2-.69,2.39-1.29,3.56-1.8,1.17-.51,2.24-.77,3.2-.77,1.07,0,1.97,.33,2.72,1,.75,.67,1.12,1.45,1.12,2.33,0,.93-.24,1.96-.72,3.07-.48,1.11-1.04,2.22-1.68,3.34-.64,1.11-1.29,2.22-1.96,3.33-.67,1.11-1.19,2.13-1.56,3.07h5.52c-.16,.85-.44,1.73-.84,2.67s-.87,1.78-1.4,2.53c-.64-.04-1.6-.04-2.88,0-1.28,.04-2.56,.02-3.84-.07-1.28-.09-2.4-.32-3.36-.7-.96-.38-1.44-1.01-1.44-1.9,0-.58,.25-1.41,.76-2.5,.51-1.09,1.11-2.25,1.8-3.47,.69-1.22,1.35-2.42,1.96-3.6,.61-1.18,1.05-2.17,1.32-2.97-1.17,.13-2.48,.7-3.92,1.7-1.44,1-2.84,2.16-4.2,3.47-1.36,1.31-2.62,2.65-3.76,4-1.15,1.36-2.02,2.46-2.6,3.3-.11,.13-.2,.33-.28,.6-.08,.27-.16,.53-.24,.8-.08,.27-.19,.5-.32,.7-.13,.2-.31,.32-.52,.37-.43,.13-.97,.21-1.64,.23-.67,.02-1.36,.03-2.08,.03s-1.43-.01-2.12-.03c-.69-.02-1.28-.03-1.76-.03,1.23-2.76,2.63-5.43,4.2-8,1.57-2.58,2.98-5.25,4.2-8,.37-.84,.77-1.66,1.2-2.43,.43-.78,.88-1.57,1.36-2.37Z"/><path class="cls-2" d="M385.66,184.85c0-2,.51-3.91,1.52-5.74,1.01-1.82,2.38-3.45,4.08-4.87,1.71-1.42,3.67-2.56,5.88-3.4,2.21-.84,4.5-1.27,6.85-1.27,.85,0,1.69,.08,2.52,.23,.83,.16,1.59,.4,2.28,.73,.69,.33,1.25,.79,1.68,1.37,.43,.58,.64,1.27,.64,2.07,0,1.6-.55,3.06-1.64,4.37-1.09,1.31-2.44,2.48-4.04,3.5-1.6,1.02-3.34,1.91-5.2,2.67-1.87,.76-3.55,1.38-5.04,1.87,1.97,.13,3.95,.22,5.93,.27,1.97,.04,3.95,.07,5.92,.07-.16,.62-.31,1.21-.44,1.77-.13,.56-.35,1.07-.64,1.53-.29,.47-.71,.83-1.24,1.1-.53,.27-1.25,.4-2.16,.4-.64,0-1.47,.01-2.48,.03-1.01,.02-2.06,.03-3.12,.03h-3.04c-.96,0-1.71-.04-2.24-.13-2.08-.22-3.6-.99-4.56-2.3-.96-1.31-1.44-2.75-1.44-4.3Zm5.36-.87c1.28-.53,2.6-1.12,3.96-1.77,1.36-.64,2.67-1.36,3.92-2.13,1.25-.78,2.35-1.64,3.28-2.6,.93-.96,1.61-2.06,2.04-3.3-1.5,0-2.92,.32-4.28,.97-1.36,.65-2.62,1.45-3.76,2.4-1.15,.96-2.16,2.01-3.04,3.17-.88,1.16-1.59,2.25-2.12,3.27Z"/><path class="cls-2" d="M422.74,167.24h5.12c-.16,.76-.41,1.45-.76,2.07-.35,.62-.65,1.29-.92,2,2.45,0,4.92-.02,7.41-.07,2.48-.04,4.95-.13,7.41-.27-.27,.76-.53,1.49-.8,2.2-.27,.71-.64,1.4-1.12,2.07-.91,.44-1.83,.83-2.76,1.17-.93,.33-1.72,.83-2.36,1.5-1.01,1.02-2.02,2.12-3,3.3-.99,1.18-1.51,2.48-1.56,3.9-.16,.44,.15,.76,.92,.93,.77,.18,1.69,.3,2.76,.37,1.07,.07,2.13,.09,3.2,.07,1.07-.02,1.76-.03,2.08-.03-.32,.89-.75,1.75-1.28,2.57-.53,.82-1.07,1.66-1.6,2.5-.96-.09-1.93-.1-2.92-.03-.99,.07-1.99,.1-3,.1-2.78,0-4.72-.44-5.84-1.33-1.12-.89-1.68-2.51-1.68-4.87,0-.62,.28-1.4,.84-2.33,.56-.93,1.23-1.87,2-2.8,.77-.93,1.56-1.83,2.36-2.7,.8-.87,1.44-1.54,1.92-2.03-.43,0-.85-.01-1.28-.03-.43-.02-.85-.03-1.28-.03-.85,0-1.51,.07-1.96,.2-.45,.13-.81,.35-1.08,.63-.27,.29-.49,.63-.68,1.03-.19,.4-.44,.87-.76,1.4-.91-.04-1.82-.07-2.72-.07h-2.72c.16-.4,.52-1.19,1.08-2.37,.56-1.18,1.16-2.41,1.8-3.7,.64-1.29,1.27-2.47,1.88-3.54,.61-1.07,1.05-1.67,1.32-1.8Z"/></g><path class="cls-2" d="M450.17,178.31c-1.28-.69-2.26-1.69-2.93-3-.67-1.31-1.01-2.88-1.01-4.72s.33-3.42,1.01-4.72c.67-1.31,1.64-2.3,2.92-2.99,1.28-.68,2.83-1.03,4.64-1.03s3.36,.34,4.64,1.03c1.28,.68,2.25,1.68,2.92,2.99,.67,1.31,1.01,2.88,1.01,4.72s-.33,3.42-1.01,4.72c-.67,1.31-1.65,2.31-2.93,3-1.28,.69-2.83,1.03-4.63,1.03s-3.35-.34-4.63-1.03Zm7.99-2.05c.93-.51,1.65-1.25,2.15-2.21,.5-.96,.74-2.11,.74-3.46s-.25-2.56-.74-3.54c-.49-.98-1.2-1.73-2.14-2.24-.93-.51-2.06-.77-3.37-.77s-2.44,.26-3.37,.77c-.94,.51-1.65,1.26-2.14,2.24-.49,.98-.74,2.16-.74,3.54s.25,2.51,.74,3.47c.49,.96,1.2,1.7,2.14,2.2,.93,.51,2.06,.76,3.37,.76s2.42-.25,3.36-.76Zm-6.76-10.11h2.14v8.82h-2.14v-8.82Zm1.33,4.26h2.68c.32,0,.58-.1,.77-.3,.19-.2,.28-.49,.28-.87s-.09-.68-.28-.88c-.19-.2-.44-.3-.77-.3h-2.68v-1.91h2.62c1.05,0,1.85,.28,2.41,.84s.84,1.31,.84,2.24-.28,1.67-.85,2.24-1.36,.85-2.39,.85h-2.62v-1.91Zm2.04,1.1l1.8-.93,2.25,4.38h-2.38l-1.67-3.44Z"/></g></svg>